<?xml version="1.0" encoding="utf-8"?>
<!-- Generator: Adobe Illustrator 16.0.0, SVG Export Plug-In . SVG Version: 6.00 Build 0)  -->
<!DOCTYPE svg PUBLIC "-//W3C//DTD SVG 1.1//EN" "http://www.w3.org/Graphics/SVG/1.1/DTD/svg11.dtd">
<svg version="1.1" id="Layer_1" xmlns="http://www.w3.org/2000/svg" xmlns:xlink="http://www.w3.org/1999/xlink" x="0px" y="0px"
	 width="500px" height="500px" viewBox="0 0 500 500" enable-background="new 0 0 500 500" xml:space="preserve">
<g>
	<path fill-rule="evenodd" clip-rule="evenodd" d="M423.752,340.472c-6.729,9.817-13.456,19.703-20.257,29.537
		c-10.358,14.984-23.174,27.765-37.256,39.081c-15.905,12.781-32.709,24.131-52.403,30.944c-12.062,4.174-23.921,8.83-36.292,12.14
		c-13,3.473-26.184,4.945-39.546,4.961c-19.06,0.022-38.123-0.063-57.177-0.466c-12.72-0.271-25.229,0.81-37.726,3.169
		c-9.791,1.848-16.089,8.463-22.539,15.011c-5.974,6.065-13.273,7.922-21.051,5.504c-7.721-2.398-13.851-7.457-15.369-15.953
		c-0.49-2.742,0.424-6.269,1.9-8.71c2.441-4.027,5.554-7.776,8.93-11.086c8.142-7.991,9.628-17.901,6.831-27.952
		c-4.531-16.269-11.662-31.561-19.563-46.563c-9.361-17.765-18.271-35.842-22.169-55.849c-2.057-10.558-5.197-20.995-6.197-31.64
		c-1.399-14.886-0.855-29.881,2.24-44.665c1.744-8.328,2.445-16.944,4.889-25.046c5.371-17.792,12.673-34.814,22.834-50.509
		c4.943-7.638,8.968-15.974,14.613-23.03c11.872-14.841,26.026-27.42,41.261-38.826c12.976-9.712,26.085-19.167,40.773-26.16
		c3.701-1.757,7.648-2.996,11.472-4.505c9.183-3.626,18.216-7.697,27.569-10.813c17.498-5.836,35.178-10.9,53.603-13.354
		c16.159-2.152,32.123-5.754,48.216-8.458c13.789-2.314,27.69-3.968,41.447-6.456c13.211-2.389,26.313-5.418,39.437-8.281
		c5.863-1.277,11.641-2.957,17.498-4.236c5.078-1.109,6.452-0.073,9.094,4.388c3.84,6.497,3.59,13.687,3.797,20.718
		c1.039,34.997,5.332,69.643,9.641,104.358c3.242,26.139,5.402,52.454,5.706,78.941c0.301,25.851-2.863,51.143-9.116,75.945
		C435.567,315.583,428.955,327.711,423.752,340.472L423.752,340.472z M185.054,375.962c7.786-1.831,15.567-4.452,23.543-5.382
		c20.303-2.363,40.729-2.672,61.145-1.399c17.494,1.092,34.688-0.331,51.046-6.894c24.272-9.733,38.19-29.166,47.248-52.61
		c1.797-4.647,1.797-9.979,2.719-14.976c1.906-10.348,0.094-20.159-3.226-30.046c-3.766-11.226-8.375-21.815-17.452-29.725
		c-5.235-4.554-10.473-9.718-16.664-12.425c-13.539-5.925-27.659-5.605-41.404,0.215c-12.511,5.297-22.054,13.933-26.417,26.913
		c-4.676,13.898-3.763,27.607,4.936,40.067c6.336,9.074,16.142,12.54,26.724,10.22c2.5-0.552,5.077-1.871,7.042-3.528
		c5.488-4.629,4.66-10.062-1.706-12.952c-1.008-0.456-2.16-0.629-3.105-1.176c-1.114-0.648-2.441-1.351-3.039-2.395
		c-3.301-5.797-4.983-11.456-1.113-18.088c4.765-8.176,11.241-11.492,20.515-9.336c9.559,2.226,14.734,9.573,19.491,17.026
		c2.234,3.507,3.727,8.016,3.976,12.167c0.888,14.542-2.107,27.787-13.424,38.421c-9.059,8.512-19.886,12.663-31.674,12.621
		c-21.496-0.083-38.176-10.336-50.108-27.973c-11.375-16.816-16.816-34.928-9.787-55.103c2.941-8.441,5.074-17.124,10.503-24.639
		c10.278-14.22,21.849-26.202,39.455-31.502c14.021-4.221,27.396-7.824,42.609-5.091c17.105,3.071,31.967,9.644,44.182,21.336
		c6.832,6.539,11.71,15.164,17.229,23.019c5.309,7.554,8.691,15.968,10.046,25.151c1.294,8.78,2.637,17.558,3.896,26.343
		c0.983,6.913,0.12,13.705-1.516,20.44c-0.516,2.098-0.914,4.227-1.367,6.339c0.344,0.121,0.68,0.242,1.022,0.367
		c1.376-2.734,3.012-5.371,4.094-8.219c8.188-21.592,11.609-44.104,11.863-67.059c0.183-16.285-0.276-32.586-0.886-48.861
		c-0.258-6.957-1.329-13.923-2.587-20.784c-0.984-5.354-2.621-6.132-7.93-5.518c-1.324,0.155-2.659,0.29-3.983,0.26
		c-15.293-0.344-30.585-0.68-45.877-1.096c-23.597-0.643-46.967,0.198-70.061,6.195c-18.351,4.765-34.061,13.661-47.58,26.635
		c-3.566,3.421-6.494,7.558-9.437,11.568c-7.609,10.366-13.656,21.659-17.775,33.799c-4.47,13.179-5.797,26.995-6.779,40.834
		c-1.023,14.447-1.223,28.975-4.515,43.221c-1.895,8.183-2.602,16.654-4.736,24.764C191.584,357.019,188.04,366.678,185.054,375.962
		L185.054,375.962z M180.868,225.114c0.38-0.023,0.761-0.05,1.143-0.078c1.82-3.542,3.658-7.074,5.454-10.628
		c4.35-8.607,7.824-17.79,14.474-24.979c8.095-8.756,16.484-17.249,24.952-25.649c4.41-4.373,8.666-8.755,9.175-15.288
		c0.447-5.727,0.789-11.5,0.603-17.234c-0.326-10.191-1.06-20.368-1.689-30.547c-0.158-2.539-0.429-5.089-0.898-7.587
		c-0.445-2.381-1.872-3.742-4.527-3.137c-3.459,0.789-7.032,1.248-10.363,2.408c-16.512,5.75-32.11,13.421-46.47,23.413
		c-7.064,4.916-13.978,10.115-20.503,15.719c-5.119,4.396-6.188,10.604-4.087,14.874c3.474,7.058,7.004,14.12,9.917,21.417
		c6.873,17.214,13.38,34.57,20.087,51.849C178.868,221.552,179.95,223.302,180.868,225.114L180.868,225.114z M121.501,164.258
		c-3.022,3.592-5.632,6.27-7.763,9.287c-10.958,15.55-18.021,32.813-21.677,51.417c-1.957,9.968-1.127,19.124,6.248,27.553
		c11.289,12.902,21.794,26.511,32.187,40.162c5.272,6.925,10.081,14.32,14.19,21.991c4.596,8.585,8.145,17.726,12.191,26.608
		c0.549,1.202,1.191,2.429,2.07,3.39c0.682,0.743,1.89,1.61,2.693,1.465c0.753-0.132,1.555-1.434,1.863-2.375
		c1.445-4.417,2.924-8.844,4.013-13.354c1.063-4.397,2.09-8.875,2.405-13.365c1.566-22.461-2.924-44.026-10.99-64.803
		c-5.176-13.332-11.656-26.151-17.214-39.338c-5.859-13.902-11.305-27.979-16.972-41.963
		C123.966,169.008,122.935,167.184,121.501,164.258L121.501,164.258z M260.448,81.764c-0.367,2.867-1.016,5.252-0.902,7.6
		c0.263,5.425,0.937,10.828,1.365,16.245c0.692,8.734,1.22,17.486,2.024,26.21c0.404,4.377,2.474,5.339,6.365,3.201
		c2.13-1.168,4.242-2.44,6.128-3.955c12.854-10.332,25.665-20.713,38.447-31.129c13.123-10.693,26.225-21.417,39.263-32.216
		c1.07-0.883,1.595-2.433,2.37-3.671c-1.511-0.471-2.998-1.02-4.533-1.375c-0.603-0.14-1.313,0.133-1.97,0.24
		c-18.839,3.099-37.697,6.084-56.504,9.351c-8.519,1.48-16.98,3.338-25.363,5.432C264.76,78.29,262.74,80.323,260.448,81.764
		L260.448,81.764z M350.748,376.923c-1.789,0.997-3.565,2.008-5.367,2.98c-7.594,4.102-14.936,8.792-22.851,12.141
		c-11.483,4.855-23.601,8.206-36.154,8.386c-20.726,0.293-41.461-0.238-62.188-0.042c-10.855,0.098-21.884,0.093-31.979,5.063
		c-7.256,3.57-14.446,7.3-21.452,11.339c-3.264,1.879-6.016,4.648-9.002,7.015c0.083,0.29,0.164,0.582,0.242,0.871
		c1.336,0.207,2.666,0.536,4.007,0.595c2.656,0.112,5.342-0.134,7.977,0.136c26.967,2.723,53.866,1.293,80.647-1.929
		c14.592-1.758,28.468-6.707,42.278-11.8C317.422,404.106,336.531,394.561,350.748,376.923L350.748,376.923z M316.991,133.25
		c2.235,0.188,3.52,0.37,4.805,0.389c25.257,0.363,50.513,0.707,75.771,1.059c8.89,0.123,10.038-1.363,8.711-10.133
		c-2.485-16.341-4.797-32.707-7.125-49.069c-0.587-4.117-1.578-4.795-5.047-2.412c-4.184,2.875-7.984,6.303-12.156,9.207
		c-15.701,10.949-31.576,21.659-45.786,34.604C330.222,122.303,323.938,127.342,316.991,133.25L316.991,133.25z M88.363,281.628
		c-0.309,0.112-0.617,0.23-0.923,0.347c0.921,6.875,1.513,13.82,2.826,20.621c4.082,21.174,14.155,40.118,22.766,59.582
		c4.258,9.625,8.875,19.089,13.401,28.593c0.897,1.878,2.11,3.614,3.219,5.386c1.049,1.676,2.303,1.633,3.449,0.165
		c1.012-1.293,2.332-2.608,2.678-4.109c1.039-4.496,2.435-9.108,2.302-13.632c-0.345-11.745-2.906-23.244-7.917-33.835
		c-8.45-17.867-19.456-34.271-30.928-50.325c-2.951-4.133-6.385-7.923-9.624-11.847C89.287,282.183,88.782,281.94,88.363,281.628
		L88.363,281.628z"/>
</g>
</svg>
