<svg version="1.1" id="Layer_1" xmlns="http://www.w3.org/2000/svg" xmlns:xlink="http://www.w3.org/1999/xlink" x="0px" y="0px"
	 width="500px" height="500px" viewBox="0 0 500 500" enable-background="new 0 0 500 500" xml:space="preserve">
<path fill="#231F20" d="M278.161,464.157c-5.64-63.63-11.28-127.264-16.919-190.896c-3.634-41.001-7.269-82.002-10.902-123.003
	c-1.025-11.557-2.049-23.113-3.074-34.669c-0.189-2.138-0.377-4.274-0.566-6.411c-0.322-3.626,0.177-7.478,0.516-11.09
	c0.551-5.847-0.756,4.446,0.213-1.233c0.282-1.654,0.661-3.29,1.045-4.924c0.371-1.596,0.844-3.169,1.318-4.738
	c0.321-1.065,2.959-7.691,0.688-2.428c1.234-2.859,2.768-5.573,4.404-8.216c0.531-0.856,3.626-5.08,0.266-0.731
	c0.939-1.215,1.971-2.354,3.002-3.491c1.039-1.144,2.165-2.203,3.29-3.26c0.713-0.671,4.831-3.92,0.562-0.678
	c2.577-1.957,5.374-3.602,8.213-5.143c1.478-0.802,3.013-1.495,4.543-2.187c-4.672,2.114,0.728-0.118,1.475-0.375
	c3.507-1.216,7.129-2.075,10.756-2.838c0.447-0.094,6.792-1.113,2.224-0.506c2.011-0.267,4.03-0.417,6.054-0.55
	c1.877-0.121,3.759-0.084,5.638-0.041c1.175,0.046,2.345,0.129,3.513,0.251c-2.814-0.407-3.045-0.397-0.693,0.024
	c1.53,0.3,3.018,0.768,4.5,1.239c4.876,1.549-4.074-2.047,0.35,0.201c1.262,0.64,2.436,1.432,3.605,2.222
	c-4.615-3.118-1.029-0.7-0.014,0.258c1.01,0.955,1.907,2.022,2.8,3.083c-3.666-4.352-0.736-0.738-0.051,0.348
	c0.773,1.228,1.432,2.524,2.089,3.816c0.966,2.088,0.861,1.772-0.313-0.948c0.376,0.948,0.73,1.904,1.064,2.869
	c1.072,3.003,1.843,6.108,2.549,9.214c0.37,1.624,0.657,3.266,0.946,4.905c1,5.662-0.5-4.619,0.204,1.189
	c0.94,7.787,1.152,15.659,1.177,23.497c0.084,27.207,42.28,27.216,42.197,0c-0.097-31.399-4.401-66.453-32.514-85.452
	c-15.499-10.475-35.115-9.666-52.693-7.004c-17.008,2.574-32.353,10.055-45.666,20.726c-12.143,9.732-20.103,24.221-24.854,38.789
	c-3.318,10.176-5.532,22.685-4.581,33.405l1.926,21.728c7.264,81.96,14.528,163.923,21.792,245.883
	c2.576,29.058,5.151,58.113,7.727,87.167c1.016,11.452,8.829,21.099,21.098,21.099C267.796,485.256,279.179,475.633,278.161,464.157
	"/>
<path fill="#231F20" d="M413.484,284.738c-23.947-23.992-47.896-47.987-71.844-71.979c-9.029-9.044-25.614-12.139-37.432-3.558
	c-25.944,18.835-51.889,37.671-77.831,56.506h33.703l-75.924-55.099c-10.239-7.432-30.692-6.874-37.431,3.558
	c-18.229,28.212-36.457,56.426-54.685,84.638c-5.589,8.652-3.348,18.914,8.551,24.055c10.49,4.534,27.021,2.342,32.608-6.307
	c18.229-28.214,36.456-56.426,54.684-84.639c-12.477,1.188-24.953,2.373-37.432,3.559l75.925,55.101
	c9.312,6.757,24.394,6.76,33.703,0c25.946-18.836,51.889-37.673,77.832-56.508c-12.477-1.186-24.955-2.372-37.432-3.559
	c23.947,23.994,47.896,47.986,71.844,71.98c7.687,7.7,20.504,11.538,32.608,6.307C415.25,304.334,421.203,292.473,413.484,284.738"
	/>
</svg>
