<svg version="1.1" id="Layer_1" xmlns="http://www.w3.org/2000/svg" xmlns:xlink="http://www.w3.org/1999/xlink" x="0px" y="0px"
	 width="500px" height="500px" viewBox="0 0 500 500" enable-background="new 0 0 500 500" xml:space="preserve">
<g>
	<path d="M251.331,101.153c72.071,0,144.143,0.001,216.212-0.001c9.581,0,17.971,2.928,24.453,10.222
		c8.541,9.609,9.393,22.779,1.881,33.234c-20.735,28.857-41.646,57.59-62.434,86.411c-14.441,20.023-28.75,40.146-43.198,60.164
		c-12.88,17.848-25.919,35.577-38.796,53.427c-18.087,25.078-36.085,50.218-54.128,75.326c-5.89,8.193-11.686,16.461-17.727,24.545
		c-13.083,17.502-38.487,17.494-51.385-0.084c-25.402-34.627-50.697-69.332-76.011-104.021
		c-25.759-35.295-51.493-70.608-77.228-105.92c-21.501-29.5-42.943-59.043-64.5-88.502c-12.271-16.767-4.045-38.528,16.775-43.77
		c2.983-0.751,6.149-1.104,9.23-1.106c72.285-0.059,144.571-0.046,216.856-0.046C251.331,101.072,251.331,101.113,251.331,101.153z
		 M250.818,114.861c0-0.025,0-0.049,0-0.074c-71.976,0-143.95-0.039-215.926,0.118c-3.705,0.008-7.737,1.064-11.04,2.757
		c-7.382,3.78-9.14,12.555-4.28,19.294c15.265,21.163,30.544,42.313,45.899,63.41c18.071,24.832,36.252,49.584,54.334,74.409
		c19.599,26.903,39.114,53.866,58.71,80.769c19.599,26.906,39.291,53.742,58.857,80.671c7.102,9.771,21.602,9.955,28.679,0.159
		c9.244-12.794,18.462-25.605,27.682-38.419c17.001-23.619,33.979-47.249,50.995-70.857c12.496-17.336,25.05-34.626,37.548-51.957
		c18.589-25.778,37.147-51.58,55.726-77.366c14.627-20.301,29.329-40.547,43.862-60.914c5.751-8.061,2.301-17.917-7.212-20.786
		c-2.923-0.881-6.123-1.165-9.196-1.167C393.909,114.846,322.363,114.861,250.818,114.861z"/>
	<path d="M250.611,289.934c-32.229-0.063-56.727-27.512-53.063-59.486c2.372-20.698,20.36-39.652,41.864-43.561
		c20.529-3.731,38.551,1.634,52.54,17.269c17.294,19.322,16.676,49.438-1.241,68.379
		C279.79,284.078,266.428,289.802,250.611,289.934z M235.403,237.95c7.489-0.057,13.309-5.927,13.209-13.32
		c-0.1-7.361-6.004-13.214-13.403-13.286c-7.285-0.07-13.814,6.276-13.803,13.413C221.413,231.834,227.964,238.007,235.403,237.95z"
		/>
	<path d="M250.86,145.311c-51.1,0-92.528,41.428-92.528,92.531c0,51.104,41.429,92.528,92.528,92.528
		c51.107,0,92.535-41.425,92.535-92.528S301.968,145.311,250.86,145.311z M250.862,316.679c-43.54,0-78.838-35.294-78.838-78.837
		c0-43.542,35.297-78.839,78.838-78.839c43.544,0,78.842,35.297,78.842,78.839S294.406,316.679,250.862,316.679z"/>
</g>
<path d="M206.392,435.275c-4.932-6.741-9.87-13.48-14.799-20.227c-70.337-24.192-121.198-90.24-122.836-168.391
	c-0.028-1.295-0.049-2.593-0.049-3.894c0-6.695,0.372-13.304,1.074-19.813c4.635-42.844,24.123-81.229,53.214-109.904
	c5.238-5.165,10.792-10.015,16.623-14.518c30.774-23.768,69.355-37.918,111.25-37.918c41.966,0,80.611,14.199,111.411,38.049
	c5.797,4.486,11.313,9.314,16.523,14.458c29.068,28.685,48.532,67.066,53.151,109.907c0.696,6.485,1.069,13.069,1.069,19.739
	c0,1.454-0.023,2.905-0.058,4.349c-1.805,77.09-51.508,142.327-120.496,167.117c-4.894,6.818-9.785,13.638-14.684,20.454
	c86.443-21.061,150.621-98.99,150.621-191.918c0-5.444-0.231-10.836-0.663-16.168c-0.586-7.263-1.572-14.412-2.927-21.43
	c-6.705-34.794-22.529-66.337-44.903-92.039c-4.403-5.058-9.063-9.883-13.954-14.47C350.633,65.53,303.127,45.23,250.873,45.23
	c-52.195,0-99.651,20.248-134.966,53.306c-4.92,4.606-9.606,9.453-14.034,14.535c-22.43,25.743-38.283,57.352-44.98,92.221
	c-1.328,6.918-2.299,13.963-2.886,21.116c-0.442,5.396-0.679,10.85-0.679,16.359C53.326,336.566,118.708,415.097,206.392,435.275z"
	/>
</svg>
