<?xml version="1.0" encoding="utf-8"?>
<!-- Generator: Adobe Illustrator 16.0.0, SVG Export Plug-In . SVG Version: 6.00 Build 0)  -->
<!DOCTYPE svg PUBLIC "-//W3C//DTD SVG 1.1//EN" "http://www.w3.org/Graphics/SVG/1.1/DTD/svg11.dtd">
<svg version="1.1" id="Layer_1" xmlns="http://www.w3.org/2000/svg" xmlns:xlink="http://www.w3.org/1999/xlink" x="0px" y="0px"
	 width="500px" height="500px" viewBox="0 0 500 500" enable-background="new 0 0 500 500" xml:space="preserve">
<g>
	<path fill-rule="evenodd" clip-rule="evenodd" d="M334.195,445.718c31.747,0,62.486,0,94.646,0c0-4.083,0-7.989,0-11.895
		c-0.005-115.497-0.021-230.995,0.001-346.491c0.003-10.283,1.864-12.324,10.667-12.486c9.419-0.175,11.729,1.931,11.731,11.351
		c0.046,121.816,0.07,243.631,0.046,365.447c-0.001,12.529-1.488,14.115-13.944,14.118c-83.904,0.034-167.811-0.058-251.717-0.075
		c-32.097-0.007-64.193,0.092-96.29,0.11c-13.444,0.007-14.838-1.446-14.834-14.687c0.033-121.059,0.057-242.117,0.074-363.175
		c0.002-11.129,1.945-13.502,11.162-13.424c8.795,0.072,10.758,2.448,10.755,13.21c-0.017,113.981-0.043,227.963-0.067,341.944
		c-0.001,5.018,0,10.032,0,15.814c25.818,0,50.91,0,76.92,0c0.159-2.531,0.472-5.189,0.473-7.847
		c0.033-110.188,0.036-220.376,0.05-330.564c0.001-7.582-0.036-15.164,0.114-22.745c0.146-7.396,2.985-9.775,11.197-9.736
		c8.276,0.04,10.793,2.207,10.809,9.988c0.057,27.547-0.02,55.095-0.013,82.642c0,1.964,0.259,3.927,0.432,6.369
		c38.375,0,76.384,0,115.138,0c0.178-3.164,0.482-6.096,0.484-9.03c0.023-26.031-0.045-52.063-0.006-78.094
		c0.016-10.388,8.992-16.004,17.973-10.658c2.424,1.442,4,6.23,4.021,9.497c0.26,41.947,0.161,83.898,0.163,125.849
		c0.002,75.061,0.01,150.123,0.016,225.184C334.195,439.082,334.195,441.827,334.195,445.718z M196.292,344.656
		c38.76,0,76.751,0,115.333,0c0-50.428,0-100.306,0-150.475c-38.597,0-76.795,0-115.333,0
		C196.292,244.54,196.292,294.222,196.292,344.656z M196.429,364.635c0,27.241,0,53.878,0,80.675c1.376,0.278,2.33,0.64,3.286,0.641
		c35.596,0.062,71.194,0.003,106.791,0.209c5.885,0.034,5.607-3.431,5.602-7.388c-0.024-22.722,0.021-45.443-0.018-68.165
		c-0.004-1.909-0.448-3.818-0.718-5.972C272.807,364.635,234.782,364.635,196.429,364.635z"/>
	<path fill-rule="evenodd" clip-rule="evenodd" d="M254.479,301.775c-18.386-0.09-32.816-14.012-32.743-31.592
		c0.078-19.39,14.203-33.035,33.933-32.781c18.256,0.232,32.008,14.219,31.83,32.373
		C287.316,288.251,273.268,301.865,254.479,301.775z"/>
	<polygon fill-rule="evenodd" clip-rule="evenodd" points="79.917,96.666 439.509,95.666 439.509,74.846 322.662,73.75 
		185.179,74.588 79.917,75.066 	"/>
</g>
<g>
	<path fill-rule="evenodd" clip-rule="evenodd" d="M1027.802,481.025c-103.188-1.621-191.701-65.987-220.189-161.107
		c-38.784-129.49,43.271-263.051,176.584-286.28c84.19-14.669,158.073,8.291,215.239,71.333
		c61.68,68.019,75.64,148.583,41.743,234.153c-30.582,77.198-90.794,120.89-171.318,137.214
		C1056.091,479.131,1041.833,479.524,1027.802,481.025z M1027.226,457.087c111.327,1.709,205.58-87.463,207.541-198.048
		c2.146-120.935-94.141-205.76-200.165-208.781c-117.581-3.35-212.798,87.152-213.698,202.167
		C820.025,364.553,913.46,456.807,1027.226,457.087z"/>
	<path fill-rule="evenodd" clip-rule="evenodd" d="M1140.904,254.566c-0.951,61.91-51.69,111.797-112.906,111.012
		c-62.95-0.81-113.892-52.427-112.542-114.039c1.342-61.263,53.252-110.064,115.841-108.909
		C1091.759,143.747,1141.818,194.871,1140.904,254.566z M1028.58,167.113c-48.046-0.016-87.898,38.848-88.048,85.859
		c-0.154,49.1,38.712,88.114,87.932,88.272c48.029,0.153,87.539-39.093,87.659-87.073
		C1116.243,206.288,1076.866,167.129,1028.58,167.113z"/>
	<path fill-rule="evenodd" clip-rule="evenodd" d="M1080.377,253.643c-0.116,29.215-22.74,51.8-51.845,51.758
		c-29.726-0.041-52.313-22.641-52.166-52.195c0.137-28.168,23.306-50.686,52.231-50.766
		C1057.082,202.36,1080.489,225.509,1080.377,253.643z"/>
</g>
</svg>
