<?xml version="1.0" encoding="utf-8"?>
<!-- Generator: Adobe Illustrator 16.0.0, SVG Export Plug-In . SVG Version: 6.00 Build 0)  -->
<!DOCTYPE svg PUBLIC "-//W3C//DTD SVG 1.1//EN" "http://www.w3.org/Graphics/SVG/1.1/DTD/svg11.dtd">
<svg version="1.1" id="Layer_1" xmlns="http://www.w3.org/2000/svg" xmlns:xlink="http://www.w3.org/1999/xlink" x="0px" y="0px"
	 width="500px" height="500px" viewBox="0 0 500 500" enable-background="new 0 0 500 500" xml:space="preserve">
<g>
	<path fill-rule="evenodd" clip-rule="evenodd" d="M248.223,477c-103.188-1.621-191.701-65.986-220.189-161.107
		c-38.784-129.49,43.271-263.05,176.584-286.279c84.19-14.669,158.073,8.291,215.239,71.333
		c61.68,68.019,75.64,148.583,41.743,234.153c-30.582,77.197-90.794,120.889-171.318,137.213
		C276.512,475.105,262.254,475.5,248.223,477z M247.646,453.063c111.327,1.709,205.58-87.463,207.541-198.049
		c2.146-120.935-94.141-205.76-200.165-208.78C137.441,42.883,42.225,133.386,41.324,248.4
		C40.446,360.527,133.881,452.781,247.646,453.063z"/>
	<path fill-rule="evenodd" clip-rule="evenodd" d="M361.325,250.541c-0.951,61.91-51.69,111.797-112.906,111.012
		c-62.95-0.809-113.892-52.426-112.542-114.039c1.342-61.262,53.252-110.064,115.841-108.908
		C312.18,139.722,362.239,190.846,361.325,250.541z M249.001,163.088c-48.046-0.016-87.898,38.848-88.048,85.859
		c-0.154,49.1,38.712,88.115,87.932,88.273c48.029,0.152,87.539-39.094,87.659-87.074
		C336.664,202.264,297.287,163.104,249.001,163.088z"/>
	<path fill-rule="evenodd" clip-rule="evenodd" d="M300.798,249.617c-0.116,29.215-22.74,51.801-51.845,51.758
		c-29.726-0.041-52.313-22.641-52.166-52.195c0.137-28.168,23.306-50.686,52.231-50.766
		C277.503,198.336,300.91,221.484,300.798,249.617z"/>
</g>
</svg>
