<?xml version="1.0" encoding="utf-8"?>
<!-- Generator: Adobe Illustrator 16.0.0, SVG Export Plug-In . SVG Version: 6.00 Build 0)  -->
<!DOCTYPE svg PUBLIC "-//W3C//DTD SVG 1.1//EN" "http://www.w3.org/Graphics/SVG/1.1/DTD/svg11.dtd">
<svg version="1.1" id="Layer_1" xmlns="http://www.w3.org/2000/svg" xmlns:xlink="http://www.w3.org/1999/xlink" x="0px" y="0px"
	 width="500px" height="500px" viewBox="0 0 500 500" enable-background="new 0 0 500 500" xml:space="preserve">
<path fill-rule="evenodd" clip-rule="evenodd" d="M-430.472,423.718c31.748,0,62.487,0,94.646,0c0-4.083,0-7.989,0-11.895
	c-0.005-115.497-0.021-230.995,0.001-346.491c0.002-10.283,1.864-12.324,10.667-12.486c9.418-0.175,11.729,1.931,11.732,11.351
	c0.045,121.816,0.069,243.631,0.045,365.447c-0.001,12.529-1.488,14.115-13.944,14.118c-83.905,0.034-167.811-0.058-251.717-0.075
	c-32.097-0.007-64.193,0.092-96.29,0.11c-13.444,0.007-14.838-1.446-14.834-14.687c0.033-121.059,0.057-242.117,0.074-363.175
	c0.002-11.129,1.945-13.502,11.162-13.424c8.795,0.072,10.758,2.448,10.755,13.21c-0.017,113.981-0.043,227.963-0.067,341.944
	c-0.001,5.018,0,10.032,0,15.814c25.818,0,50.91,0,76.92,0c0.159-2.531,0.472-5.189,0.473-7.847
	c0.033-110.188,0.036-220.376,0.05-330.564c0.001-7.582-0.036-15.164,0.114-22.745c0.146-7.396,2.985-9.775,11.197-9.736
	c8.276,0.04,10.793,2.207,10.809,9.988c0.057,27.547-0.02,55.095-0.013,82.642c0,1.964,0.259,3.927,0.432,6.369
	c38.375,0,76.383,0,115.138,0c0.178-3.164,0.481-6.096,0.484-9.03c0.022-26.031-0.046-52.063-0.006-78.094
	c0.016-10.388,8.992-16.004,17.973-10.658c2.423,1.442,4,6.23,4.02,9.497c0.26,41.947,0.161,83.898,0.163,125.849
	c0.002,75.061,0.01,150.123,0.016,225.184C-430.472,417.082-430.472,419.827-430.472,423.718z M-568.375,322.656
	c38.76,0,76.752,0,115.333,0c0-50.428,0-100.306,0-150.475c-38.597,0-76.795,0-115.333,0
	C-568.375,222.54-568.375,272.222-568.375,322.656z M-568.237,342.635c0,27.241,0,53.878,0,80.675
	c1.376,0.278,2.33,0.64,3.286,0.641c35.596,0.062,71.194,0.003,106.79,0.209c5.885,0.034,5.607-3.431,5.603-7.388
	c-0.025-22.722,0.021-45.443-0.019-68.165c-0.003-1.909-0.448-3.818-0.717-5.972C-491.86,342.635-529.884,342.635-568.237,342.635z"
	/>
<path fill-rule="evenodd" clip-rule="evenodd" d="M-510.188,279.775c-18.385-0.09-32.815-14.012-32.743-31.592
	c0.078-19.39,14.203-33.035,33.933-32.781c18.256,0.232,32.008,14.219,31.83,32.372
	C-477.35,266.251-491.398,279.865-510.188,279.775z"/>
<g>
	<path fill-rule="evenodd" clip-rule="evenodd" d="M452.969,385.953c8.365,11.172,13.784,22.398,14.169,35.52
		c0.97,33.001-23.094,59.998-58.276,65.691c-23.825,3.858-46.884,0.661-69.303-7.455c-23.018-8.331-46.085-16.634-68.593-26.218
		c-11.125-4.735-21.286-4.968-32.188-0.985c-24.423,8.92-48.856,17.812-73.329,26.589c-26.988,9.679-54.332,13.319-82.453,4.845
		c-37.929-11.431-57.013-51.934-39.938-85.377c2.152-4.215,5.163-7.988,8.14-12.521c-2.778-0.455-5.363-0.816-7.921-1.311
		c-6.613-1.271-11.277-4.713-11.708-11.882c-0.436-7.228,3.873-10.843,10.334-12.994c29.7-9.888,51.398-28.739,62.814-58.183
		c4.817-12.428,8.535-25.33,12-38.221c2.744-10.219,4.803-20.677,6.347-31.15c3.117-21.139,15.478-35.513,34.441-42.634
		c15.383-5.776,31.983-9.55,48.348-11.229c37.287-3.826,74.696-2.998,111.891,2.407c3.742,0.542,7.476,1.253,11.144,2.179
		c29.985,7.567,49.252,24.641,53.556,56.995c3.063,23.005,8.531,45.589,18.544,66.903c12.239,26.054,32.571,42.676,59.03,52.313
		c7.043,2.567,12.728,5.332,12.1,13.908c-0.632,8.636-6.997,10.903-14.133,12.104C456.75,385.456,455.503,385.6,452.969,385.953z
		 M349.351,380.938c22.559-5.207,44.591-10.292,65.844-15.198c-21.295-14.259-34.09-36.187-41.66-60.99
		c-6.316-20.705-10.731-42.029-15.252-63.235c-2.603-12.199-8.421-21.847-19.275-27.536c-7.493-3.928-15.683-7.387-23.948-8.821
		c-40.118-6.958-80.549-6.446-120.72-1.157c-27.288,3.593-46.766,14.374-51.093,48.319c-3.353,26.298-10.448,51.963-22.947,75.726
		c-8.063,15.329-18.981,28.356-31.292,37.839c21.579,4.881,43.649,9.87,65.898,14.9c2.782-32.225,1.914-64.813,10.845-96.734
		c3.391,5.742,6.687,11.605,7.304,17.737c2.811,27.851,5.131,55.761,6.972,83.693c0.376,5.7,1.938,8.371,7.18,10.391
		c16.481,6.349,32.923,12.864,49.054,20.044c10.991,4.894,21.167,4.504,32.048-0.255c16.178-7.071,32.634-13.52,49.131-19.822
		c5.219-1.994,7.322-4.57,7.175-10.417c-0.683-27.074,0.461-54.083,6.247-80.647c1.563-7.172,4.538-14.037,6.866-21.044
		c0.918,0.153,1.838,0.309,2.758,0.463C349.008,316.034,346.237,349.057,349.351,380.938z M286.941,432.689
		c-0.079,1.088-0.158,2.176-0.239,3.265c27.231,9.542,54.116,20.283,81.813,28.198c18.129,5.18,37.17,3.217,54.737-5.163
		c14.835-7.077,22.918-22.883,20.243-38.77c-2.938-17.458-13.413-27.878-31.437-29.232c-7.861-0.591-16.437,0.155-23.815,2.763
		c-31.831,11.245-63.35,23.382-94.947,35.28C291.039,429.881,289.054,431.453,286.941,432.689z M217.074,435.064
		c0.106-0.737,0.21-1.474,0.315-2.211c-2.978-1.666-5.817-3.684-8.96-4.944c-20.148-8.091-40.176-16.531-60.616-23.818
		c-14.693-5.238-29.757-9.88-45.024-12.948c-19.629-3.943-35.415,6.226-40.621,24.146c-5.421,18.653,2.804,36.463,20.567,44.568
		c15.768,7.198,32.651,8.94,48.96,4.902c19.73-4.881,38.8-12.491,58.066-19.177C198.974,442.384,207.977,438.588,217.074,435.064z"
		/>
	<path fill-rule="evenodd" clip-rule="evenodd" d="M252.35,164.358c-45.278-0.331-79.993-35.13-79.55-79.742
		c0.426-42.671,36.587-77.005,80.588-76.519c42.818,0.474,77.766,36.168,77.405,79.057
		C330.436,129.408,294.614,164.666,252.35,164.358z M308.143,87.04c0.026-31.913-24.501-56.311-56.813-56.509
		c-30.682-0.189-55.961,25.041-55.934,55.826c0.026,30.914,25.274,55.872,56.759,56.113
		C281.835,142.696,308.119,116.673,308.143,87.04z"/>
	<path fill-rule="evenodd" clip-rule="evenodd" d="M285.797,289.359c-0.203,18.03-15.003,32.591-32.967,32.433
		c-18.073-0.158-33.12-15.055-32.916-32.585c0.208-17.836,15.224-32.548,33.097-32.422
		C271.299,256.911,285.997,271.517,285.797,289.359z"/>
</g>
<g>
	<path fill-rule="evenodd" clip-rule="evenodd" d="M1027.802,481.025c-103.188-1.621-191.701-65.987-220.189-161.107
		c-38.784-129.49,43.271-263.051,176.584-286.28c84.19-14.669,158.073,8.291,215.239,71.333
		c61.68,68.019,75.64,148.583,41.743,234.153c-30.582,77.198-90.794,120.89-171.318,137.214
		C1056.091,479.131,1041.833,479.524,1027.802,481.025z M1027.226,457.087c111.327,1.709,205.58-87.463,207.541-198.048
		c2.146-120.935-94.141-205.76-200.165-208.781c-117.581-3.35-212.798,87.152-213.698,202.167
		C820.025,364.553,913.46,456.807,1027.226,457.087z"/>
	<path fill-rule="evenodd" clip-rule="evenodd" d="M1140.904,254.566c-0.951,61.91-51.69,111.797-112.906,111.012
		c-62.95-0.81-113.892-52.427-112.542-114.039c1.342-61.263,53.252-110.064,115.841-108.909
		C1091.759,143.747,1141.818,194.871,1140.904,254.566z M1028.58,167.113c-48.046-0.016-87.898,38.848-88.048,85.859
		c-0.154,49.1,38.712,88.114,87.932,88.272c48.029,0.153,87.539-39.093,87.659-87.073
		C1116.243,206.288,1076.866,167.129,1028.58,167.113z"/>
	<path fill-rule="evenodd" clip-rule="evenodd" d="M1080.377,253.643c-0.116,29.215-22.74,51.8-51.845,51.758
		c-29.726-0.041-52.313-22.641-52.166-52.195c0.137-28.168,23.306-50.686,52.231-50.766
		C1057.082,202.36,1080.489,225.509,1080.377,253.643z"/>
</g>
</svg>
