<svg version="1.1" id="Layer_1" xmlns="http://www.w3.org/2000/svg" xmlns:xlink="http://www.w3.org/1999/xlink" x="0px" y="0px"
	 width="500px" height="500px" viewBox="0 0 500 500" enable-background="new 0 0 500 500" xml:space="preserve">
<g>
	<path fill-rule="evenodd" clip-rule="evenodd" d="M262.604,381.137c45.834-7.736,88.252-23.478,123.845-54.673
		c35.329-30.964,58.415-69.366,70.196-115.029c13.36,0,26.366,0,40.772,0c-6.211,51.478-26.799,95.944-59.912,134.636
		c-33.067,38.638-74.816,64.524-123.644,79.885c7.276,21.021,14.284,41.263,21.571,62.314c-24.712,0-48.506,0-72.829,0
		C262.604,452.541,262.604,417.203,262.604,381.137z"/>
	<path fill-rule="evenodd" clip-rule="evenodd" d="M237.222,381.402c0,13,0,25.766,0,38.531c0,22.587,0,45.174,0,68.344
		c-24.58,0-48.429,0-73.208,0c7.092-20.661,14.022-40.851,21.124-61.543C82.26,390.741,20.824,320.146,2.582,211.398
		c15.035,0,28.285,0,41.513,0C71.602,309.767,137.667,364.237,237.222,381.402z"/>
	<path fill-rule="evenodd" clip-rule="evenodd" d="M318.377,190.626c0.066,37.507-31.05,69.127-68.009,69.111
		c-38.723-0.017-69.816-31.078-69.772-69.698c0.042-36.876,31.198-67.715,68.495-67.8
		C287.387,122.152,318.312,152.674,318.377,190.626z"/>
	<path fill-rule="evenodd" clip-rule="evenodd" d="M248.619,40.126c-81.847,0.185-150.213,67.858-150.306,148.779
		c-0.097,84.748,68.135,152.908,153.107,152.945c81.102,0.035,149.384-69.352,149.239-151.657
		C400.514,106.911,332.655,39.934,248.619,40.126z M250.925,303.249c-63.229-0.028-114.002-50.747-113.93-113.811
		c0.068-60.216,50.942-110.573,111.846-110.71c62.534-0.144,113.028,49.696,113.137,111.668
		C362.087,251.643,311.275,303.275,250.925,303.249z"/>
</g>
</svg>
