<?xml version="1.0" encoding="utf-8"?>
<!-- Generator: Adobe Illustrator 16.0.0, SVG Export Plug-In . SVG Version: 6.00 Build 0)  -->
<!DOCTYPE svg PUBLIC "-//W3C//DTD SVG 1.1//EN" "http://www.w3.org/Graphics/SVG/1.1/DTD/svg11.dtd">
<svg version="1.1" id="Layer_1" xmlns="http://www.w3.org/2000/svg" xmlns:xlink="http://www.w3.org/1999/xlink" x="0px" y="0px"
	 width="500px" height="500px" viewBox="0 0 500 500" enable-background="new 0 0 500 500" xml:space="preserve">
<g>
	<path fill-rule="evenodd" clip-rule="evenodd" fill="#3F504A" d="M130.606,260.436c7.014,2.688,13.763,4.989,20.263,7.854
		c5.917,2.607,12.151,4.271,18.095,6.808c7.808,3.332,15.934,5.912,23.854,8.989c3.374,1.311,6.744,2.753,10.088,4.063
		c3.366,1.317,7.004,2.276,10.334,3.739c5.323,2.337,10.928,3.871,16.25,6.184c1.523,0.661,1.644,1.083,0.896,2.558
		c-1.925,3.8-3.446,7.792-4.096,12.033c-0.267,1.738-0.959,1.717-2.37,1.187c-17.425-6.559-34.875-13.052-52.308-19.586
		c-7.979-2.991-15.929-6.059-23.906-9.054c-10.539-3.959-21.113-7.821-31.615-11.875c-1.777-0.686-1.952-0.482-1.95,1.302
		c0.032,21.723-0.022,43.444-0.029,65.167c-0.008,25.465,0.041,50.93-0.038,76.395c-0.008,2.602,0.916,3.947,3.274,4.922
		c22.707,9.38,45.384,18.831,68.061,28.285c20.169,8.409,40.326,16.847,60.487,25.275c1.183,0.495,2.364,0.999,3.523,1.547
		c2.189,1.035,4.337,0.916,6.529-0.031c24.512-10.593,49.032-21.164,73.545-31.754c4.493-1.94,8.953-3.959,13.446-5.9
		c13.576-5.865,27.142-11.758,40.76-17.522c2.683-1.136,3.053-2.929,3.044-5.548c-0.147-42.871-0.195-85.744-0.268-128.616
		c-0.008-4.23-0.086-8.461-0.02-12.689c0.021-1.318-0.177-1.526-1.471-1.051c-8.708,3.195-17.427,6.366-26.184,9.428
		c-10.864,3.799-21.551,8.077-32.319,12.124c-13.955,5.244-28.07,10.098-41.745,16.095c-5.356,2.35-10.925,4.217-16.768,6.444
		c1.953-7.265,3.813-14.191,7.119-20.642c0.546-1.064,1.575-1.307,2.501-1.679c8.677-3.485,17.469-6.673,26.18-10.071
		c7.93-3.094,15.899-6.12,23.901-9.043c5.985-2.187,11.97-4.38,17.953-6.575c8.353-3.064,16.701-6.141,25.061-9.187
		c0.39-0.142,0.806-0.117,0.753-0.679c-0.041-0.426-0.402-0.396-0.7-0.506c-6.441-2.37-12.896-4.706-19.311-7.147
		c-13.187-5.019-26.421-9.905-39.703-14.665c-0.671-0.24-1.409-0.175-2.173-0.664c0.876-1.366,2.434-1.698,3.618-2.512
		c3.625-2.489,6.85-5.433,9.797-8.672c1.162-1.277,2.021-1.602,3.88-0.861c12.094,4.819,24.294,9.372,36.447,14.044
		c11.429,4.394,22.823,8.877,34.27,13.224c6.264,2.379,7.209,3.592,7.477,11.055c0.589,16.428-0.473,32.854-0.409,49.286
		c0.084,21.723-0.109,43.448,0.239,65.165c0.252,15.701,0.152,31.398,0.259,47.098c0.006,0.976,0.045,1.956-0.018,2.928
		c-0.278,4.346-2.007,7.403-6.438,9.11c-7.832,3.016-15.482,6.507-23.188,9.849c-6.591,2.859-13.098,5.917-19.735,8.663
		c-19.976,8.264-39.77,16.952-59.639,25.467c-13.021,5.579-26.104,11.015-39.1,16.653c-5.291,2.296-9.955,0.607-14.77-1.44
		c-14.949-6.359-29.943-12.611-44.924-18.896c-5.393-2.263-10.804-4.481-16.192-6.754c-20.2-8.517-40.399-17.037-60.587-25.58
		c-6.71-2.839-13.382-5.765-20.085-8.619c-2.755-1.172-4.168-3.182-4.193-6.188c-0.164-19.768-0.433-39.535-0.487-59.302
		c-0.095-34.739-0.065-69.479-0.072-104.217c0-2.026,0.12-4.041,0.347-6.071c0.418-3.744,2.571-5.65,5.903-6.741
		c18.075-5.92,35.687-13.115,53.593-19.496c5.321-1.896,10.563-3.982,15.855-5.943c14.054-5.207,28.09-10.461,42.122-15.724
		c1.425-0.535,2.229-0.469,3.151,1.085c2.392,4.029,5.005,7.958,8.418,11.228c1.358,1.301,1.009,1.757-0.555,2.311
		c-6.857,2.427-13.678,4.956-20.532,7.395c-3.587,1.277-7.398,2.093-10.834,3.577c-6.165,2.662-12.526,4.701-18.806,6.989
		c-13.792,5.027-27.621,9.953-41.431,14.932C132.266,259.627,131.633,259.969,130.606,260.436z"/>
	<path fill-rule="evenodd" clip-rule="evenodd" fill="#5A9E27" d="M241.641,308.903c1.661-9.317,5.67-17.9,8.432-26.875
		c5.327-17.312,3.559-33.652-6.669-48.698c-3.579-5.265-8.08-9.897-12.073-14.888c-6.463-8.079-11.49-16.9-13.828-27.105
		c-2.236-9.762-3.13-19.534-2.029-29.588c1.466-13.382,5.929-25.676,11.888-37.585c4.181-8.356,9.22-16.16,15.249-23.251
		c4.861-5.718,10.343-10.859,16.28-15.521c11.387-8.942,24.342-15.324,36.641-22.777c5.006-3.033,10.026-6.06,14.493-10.055
		c-1.006-0.566-1.773-0.123-2.433,0.205c-9.137,4.538-18.916,7.442-28.377,11.149c-11.104,4.351-21.901,9.252-31.407,16.549
		c-9.349,7.176-17.001,15.879-22.853,26.171c-3.047,5.359-5.366,11.011-7.549,16.743c-0.194,0.511-0.469,0.992-0.798,1.677
		c-1.621-1.898-1.299-4.217-1.6-6.183c-0.946-6.187-0.846-12.464-0.756-18.721c0.199-13.723,3.677-26.586,10.418-38.512
		c8.213-14.531,20.166-25.1,35.097-32.383c9.347-4.559,19.229-7.428,29.465-9.136c5.84-0.975,11.656-2.135,17.525-2.881
		c5.125-0.651,10.248-1.299,15.355-2.08c10.688-1.634,21.146-4.034,30.547-9.658c1.652-0.988,1.848-0.549,1.971,0.967
		c0.783,9.584,0.631,19.173,0.108,28.759c-0.225,4.125-0.288,8.297-0.999,12.347c-0.622,3.542-1.347,7.122-1.993,10.644
		c-0.771,4.197-1.761,8.277-3.152,12.261c-3.571,10.227-8.688,19.609-15.575,28.021c-11.758,14.359-26.656,23.808-44.4,29.068
		c-6.915,2.05-14.002,3.338-20.92,5.279c-9.522,2.671-17.776,7.513-24.045,15.435c-3.911,4.943-6.705,10.368-8.136,16.499
		c-1.267,5.426-1.189,10.882-0.525,16.382c0.381,3.152,1.19,6.174,2.261,9.128c2.374,6.548,6.25,12.034,11.75,16.369
		c3.946,3.109,8.403,5.395,12.778,7.748c2.146,1.155,4.872,1.428,7.377,1.682c8.137,0.82,16.166,0.637,23.304-4.15
		c6.689-4.487,10.701-10.608,11.956-18.719c1.086-7.021-0.403-13.186-4.883-18.543c-4.045-4.837-9.468-6.896-15.637-5.741
		c-6.614,1.238-11.108,5.118-12.654,11.995c-1.282,5.706-0.219,10.866,3.092,15.636c0.334,0.48,1.22,0.854,0.767,1.613
		c-0.467,0.782-1.379,0.475-2.015,0.337c-8.225-1.78-14.9-7.295-16.881-15.468c-3.197-13.196,3.502-24.658,15.795-30.051
		c12.856-5.639,25.542-4.682,37.188,3.304c8.334,5.714,13.697,13.74,16.11,23.696c2.279,9.408,1.67,18.554-2.076,27.443
		c-4.176,9.906-11.021,17.421-20.93,21.747c-4.937,2.154-10.061,3.861-15.572,4.313c-3.773,0.31-7.528,0.994-11.326,1.228
		c-4.737,0.291-9.291-0.757-14.229-2.052c3.007,4.954,5.327,9.803,6.629,15.101c1.977,8.046,2.088,16.164,1.237,24.352
		c-0.792,7.621-2.69,14.971-5.328,22.133c-2.484,6.748-4.955,13.492-6.431,20.553c-0.619-0.126-1.246-0.224-1.857-0.384
		C250.594,313.164,246.129,311.005,241.641,308.903z"/>
	<path fill-rule="evenodd" clip-rule="evenodd" fill="#534A37" d="M241.641,308.903c4.488,2.102,8.953,4.261,13.775,5.526
		c0.611,0.16,1.238,0.258,1.857,0.384c-0.972,6.233-1.682,12.489-1.786,18.809c-0.071,4.239,0.479,8.399,1.311,12.537
		c1.379,6.852,3.249,13.537,6.479,19.789c6.837,13.23,17.548,21.846,31.551,26.529c6.967,2.33,13.673,5.2,19.653,9.523
		c5.72,4.134,10.396,9.268,13.691,15.526c2.733,5.189,4.574,10.67,4.224,16.672c-0.023,0.4-0.049,0.801-0.092,1.199
		c-0.005,0.045-0.124,0.078-0.236,0.144c-10.725-11.57-20.981-23.781-37.256-29.164c0.482,8.991,0.477,17.373,5.379,24.702
		c0.499,0.745,1.116,1.423,1.042,2.394c-0.041,0.541,1.5,0.622,0.266,1.625c-0.933,0.759-1.488,0.361-2.131,0.011
		c-5.53-3.011-9.08-7.637-10.898-13.616c-1.022-3.362-1.95-6.754-2.951-10.123c-1.485-5.002-4.857-8.225-9.58-10.233
		c-11.203-4.766-19.614-12.563-25.157-23.502c-1.967,1.971-1.38,4.526-1.589,6.722c-1.266,13.275,2.434,25.194,10.354,35.869
		c3.13,4.219,6.934,7.92,9.645,12.455c3.147,5.267,5.047,10.869,4.06,17.106c-0.667,4.21-2.665,7.891-4.896,11.45
		c-0.214,0.341-0.513,0.687-0.985,0.513c-0.642-0.236-0.409-0.737-0.323-1.212c1.409-7.743,0.317-14.974-4.649-21.295
		c-2.164-2.753-5.001-4.79-7.896-6.747c-0.814-0.551-1.104-0.394-1.431,0.331c-2.639,5.873-5.472,11.66-5.174,18.401
		c0.108,2.447,0.475,4.809,1.002,7.169c0.118,0.529,0.624,1.082-0.163,1.441c-0.605,0.276-0.891-0.308-1.149-0.66
		c-4.239-5.772-6.205-12.16-5.216-19.353c0.572-4.158,1.12-8.32,1.619-12.487c0.263-2.206-0.062-4.349-1.047-6.371
		c-2.833-5.818-6.387-11.311-7.823-17.938c-6.168,6.09-13.337,9.629-21.489,11.194c-5.824,1.118-11.782,2.188-16.985,4.91
		c-5.304,2.775-10.314,6.292-14.677,10.55c-0.464,0.453-0.851,1.489-1.678,0.916c-0.628-0.436-0.006-1.146,0.2-1.751
		c3.532-10.386,10.73-17.225,20.547-21.723c6.03-2.763,12.317-4.968,17.955-8.61c5.187-3.351,8.919-7.856,11.992-13.107
		c1.818-3.107,3.628-6.163,4.211-9.778c0.056-0.196,0.22-0.495,0.147-0.571c-0.24-0.254-0.53-0.121-0.778,0.07
		c-6.231,2.436-12.656,3.529-19.337,2.721c-3.616-0.438-7.216-0.902-10.868-1.083c-8.567-0.422-15.841,2.712-22.638,7.539
		c-4.067,2.887-7.92,6.06-12.338,8.481c-8.491,4.654-16.797,3.759-25.113-0.298c-0.504-0.246-1.365-0.502-0.964-1.393
		c0.258-0.573,0.805-0.33,1.284-0.229c7.042,1.484,13.209-0.668,18.753-4.82c5.504-4.123,10.104-9.334,15.796-13.261
		c5.933-4.093,12.288-7.274,19.375-8.629c5.563-1.063,11.253-0.675,16.902-0.767c7.42-0.121,14.366-1.689,19.627-7.675
		c3.304-3.757,4.518-8.139,4.526-12.93c0.012-6.581-0.351-13.163,0.077-19.741c0.196-3.005,0.481-5.96,1.256-8.935
		C241.313,312.534,241.502,310.659,241.641,308.903z"/>
	<path fill-rule="evenodd" clip-rule="evenodd" fill="#5A9E27" d="M375.962,315.41c0,9.266-0.017,18.531,0.02,27.797
		c0.005,1.216-0.104,1.823-1.626,1.919c-7.662,0.481-14.455,3.424-20.562,7.926c-8.979,6.619-14.953,15.554-19.039,25.781
		c-0.87,2.178-1.167,4.646-1.254,7.06c-0.072,2.005-0.609,3.326-3.137,3.026c-2.244-0.266-4.563-0.226-6.817-0.005
		c-2.337,0.229-2.76-0.72-2.748-2.836c0.067-11.948,0.051-23.897-0.083-35.845c-0.023-2.014,0.645-2.918,2.504-3.311
		c4.04-0.851,7.687-2.691,11.063-4.969c7.827-5.279,12.878-12.863,16.896-21.187c3.837-7.947,5.101-16.421,4.474-25.174
		c-0.145-2.019,0.49-2.988,2.431-3.665c5.357-1.869,10.712-3.79,15.906-6.059c2.28-0.996,2.011,0.114,2.011,1.503
		c0,9.346,0,18.691,0,28.037C375.987,315.41,375.975,315.41,375.962,315.41z"/>
	<path fill-rule="evenodd" clip-rule="evenodd" fill="#5A9E27" d="M267.612,348.146c14.585,0,28.888,0.032,43.188-0.038
		c1.952-0.01,1.896,1.119,1.782,2.34c-0.73,7.829-0.813,15.688-0.466,23.518c0.186,4.193,0.437,8.386,0.484,12.587
		c0.011,0.98,0.015,1.79-1.396,1.583c-6.199-0.91-12.387-1.892-18.073-4.707c-10.843-5.368-17.693-14.31-22.284-25.217
		C269.513,355.04,268.559,351.741,267.612,348.146z"/>
	<path fill-rule="evenodd" clip-rule="evenodd" fill="#5A9E27" d="M290.208,340.007c-6.669-0.002-13.34-0.06-20.008,0.037
		c-1.71,0.025-2.219-0.426-2.141-2.163c0.156-3.487,0.161-6.989,0.021-10.477c-0.063-1.534,0.553-2.217,1.852-2.627
		c13.899-4.382,27.035-10.777,40.808-15.501c1.388-0.476,1.786-0.723,1.774,1.017c-0.063,9.271-0.088,18.541,0.021,27.811
		c0.021,1.755-0.605,1.948-2.074,1.934C303.711,339.974,296.96,340.01,290.208,340.007z"/>
	<path fill-rule="evenodd" clip-rule="evenodd" fill="#5A9E27" d="M375.948,351.369c0,3.498-0.002,6.813,0,10.127
		c0.007,8.455-0.033,16.912,0.063,25.367c0.019,1.623-0.425,2.051-2.017,2.041c-10.569-0.064-21.14-0.046-31.709-0.021
		c-1.19,0.003-2.028,0.057-1.729-1.64c1.761-9.989,5.847-18.8,13.493-25.595c4.958-4.405,10.658-7.631,17.303-9.036
		C372.801,352.308,374.328,352.118,375.948,351.369z"/>
	<path fill-rule="evenodd" clip-rule="evenodd" fill="#5A9E27" d="M321.523,396.81c17.584,0,34.94,0.042,52.296-0.058
		c2.033-0.012,2.379,0.588,2.303,2.425c-0.172,4.137-0.146,8.282-0.121,12.425c0.007,1.195-0.261,1.644-1.541,2.159
		c-8.675,3.493-17.364,6.972-25.754,11.128c-1.129,0.561-1.825,0.861-2.612-0.636c-5.795-11.01-13.92-19.949-24.28-26.849
		C321.755,397.365,321.74,397.262,321.523,396.81z"/>
	<path fill-rule="evenodd" clip-rule="evenodd" fill="#5A9E27" d="M320.77,339.278c0-10.823,0.011-21.472-0.018-32.12
		c-0.003-1.14,0.371-1.711,1.485-2.135c8.001-3.045,15.971-6.171,23.95-9.273c1.581-0.614,2.514-0.559,2.55,1.611
		c0.183,10.665-2.38,20.532-9.032,28.949C334.882,332.413,328.789,337.04,320.77,339.278z"/>
</g>
</svg>
