<svg version="1.1" id="Layer_1" xmlns="http://www.w3.org/2000/svg" xmlns:xlink="http://www.w3.org/1999/xlink" x="0px" y="0px"
	 width="500px" height="500px" viewBox="0 0 500 500" enable-background="new 0 0 500 500" xml:space="preserve">
<g>
	<path d="M345.622,378.819c-5.618,7.152-12.316,11.695-21.378,10.167c-10.027-1.692-11.68-9.865-12.604-19.203
		c-1.434,1.981-2.267,3.134-3.098,4.285c-6.083,8.428-13.841,14.026-24.593,14.586c-9.842,0.511-17.772-5.571-19.125-15.402
		c-3.008-21.878,4.825-39.611,22.191-52.757c9.274-7.02,20.113-7.165,31.039-3.49c1.471,0.495,3.211,0.444,4.797,0.301
		c3.252-0.297,6.491-1.229,9.722-1.168c4.806,0.091,6.969,3.6,5.898,8.275c-2.795,12.201-5.633,24.393-8.078,36.664
		c-0.645,3.236-0.322,6.815,0.27,10.106c0.653,3.628,3.823,4.912,6.73,2.632c2.313-1.814,4.738-4.354,5.556-7.043
		c2.486-8.199,4.287-16.61,6.211-24.971c0.808-3.514,1.192-7.124,1.919-10.658c0.156-0.763,0.945-1.976,1.47-1.989
		c4.421-0.122,8.903-0.42,13.252,0.173c2.965,0.405,4.622,2.784,3.971,6.197c-1.694,8.857-3.387,17.717-4.92,26.604
		c-0.557,3.234-0.784,6.543-0.874,9.822c-0.024,0.975,0.717,2.479,1.505,2.818c0.776,0.337,2.498-0.165,3.035-0.878
		c1.827-2.429,4.083-4.922,4.787-7.736c2.11-8.421,4.184-16.936,5.153-25.539c2.86-25.42,13.423-46.852,32.325-63.968
		c10.174-9.216,21.08-17.614,31.421-26.655c13.884-12.135,24.607-26.508,29.334-44.659c3.76-14.437,2.037-27.756-9.589-38.341
		c-8.224-7.489-18.046-9.071-28.599-6.445c-12.947,3.221-22.321,11.437-30.035,21.925c-2.201,2.994-4.696,5.769-7.127,8.729
		c6.288,9.614,11.181,19.891,14.041,31.121c2.844,11.164,3.523,22.526,2.8,33.91c-0.62,9.752-6.981,16.397-14.016,22.359
		c-12.944,10.971-28.371,16.322-44.674,19.763c-24.507,5.169-49.32,4.742-74.142,4.194c-14.918-0.328-29.835-0.782-44.752-1.208
		c-1.674-0.05-3.342-0.28-5.578-0.475c0.643-6.307,1.115-12.329,2.02-18.289c0.132-0.87,2.327-2.048,3.556-2.033
		c9.591,0.107,19.182,0.438,28.771,0.766c21.514,0.739,43.022,1.777,64.542,2.161c10.298,0.183,20.603-0.879,30.64-3.659
		c8.999-2.499,16.437-7.341,22.418-14.462c3.316-3.947,4.976-8.56,5.416-14.515c-1.125,1.391-1.82,2.226-2.488,3.084
		c-7.782,9.982-18.1,14.885-30.658,15.044c-8.464,0.11-13.958-4.445-15.77-12.808c-0.488-2.258-0.747-4.567-1.248-7.725
		c-1.396,2.008-2.382,3.398-3.342,4.805c-6.4,9.367-15.155,14.21-26.589,13.202c-9.072-0.803-16.436-8.296-18.029-17.693
		c-3.673-21.648,13.73-48.871,34.911-54.339c7.012-1.81,14.042-1.84,21.031,0.748c1.772,0.654,4.076,0.059,6.102-0.207
		c4.347-0.568,8.511-0.519,12.069,2.533c1.583,1.356,2.147,2.834,1.573,5.068c-2.645,10.263-5.248,20.542-7.496,30.894
		c-0.869,4.008-1.087,8.234-1.021,12.351c0.093,6.059,4.068,8.771,9.875,7.202c8.849-2.395,15.573-11.724,16.369-21.797
		c0.85-10.75-2.224-20.351-7.356-29.541c-10.452-18.717-25.208-32.763-44.871-41.521c-1.138-0.506-2.215-1.149-3.278-1.707
		c1.617-4.445,9.158-7.479,15.313-6.382c9.897,1.766,18.175,6.941,26.368,12.299c3.902,2.556,7.667,5.323,11.184,7.779
		c4.977-5.464,9.521-11.114,14.736-16.054c14.022-13.282,30.524-20.662,50.211-19.587c26.248,1.432,48.671,16.583,54.32,43.992
		c3.031,14.704,0.287,28.73-5.835,42.224c-8.016,17.665-19.852,32.49-34.39,45.127c-8.995,7.815-18.351,15.242-27.823,22.479
		c-16.069,12.276-26.494,28.446-34.036,46.921c-4.564,11.178-9.583,22.207-15.054,32.968c-2.404,4.733-6.206,8.851-9.811,12.851
		c-2.995,3.325-7.248,4.784-11.655,5.393C353.426,389.419,349.147,386.669,345.622,378.819z M284.848,359.758
		c0.529,2.176,0.872,5.06,1.942,7.645c1.729,4.169,5.276,5.778,9.357,3.832c3.246-1.552,6.598-3.684,8.819-6.433
		c8.13-10.059,10.029-22.394,11.649-34.741c0.294-2.229-1.217-2.705-2.895-2.93c-5.162-0.688-10.042,0.304-14.236,3.339
		C289.797,337.483,286.424,347.77,284.848,359.758z M311.436,236.219c0,0.853-0.08,1.715,0.014,2.558
		c0.444,4.001,1.188,8.289,5.086,10.07c4.137,1.892,7.853-0.613,10.951-3.354c5.107-4.521,9.097-9.941,10.851-16.59
		c1.564-5.937,2.648-12.01,3.735-18.061c0.607-3.378-0.594-4.773-4.142-5.29c-7.499-1.091-13.816,1.454-18.364,7.281
		C314.277,219.608,311.734,227.584,311.436,236.219z"/>
	<path d="M264.219,95.385c5.361,1.122,10.681,1.981,15.859,3.366c15.665,4.188,29.938,10.947,40.953,23.319
		c3.677,4.128,6.23,8.773,6.438,14.536c0.213,5.867-2.302,10.205-6.787,13.682c-8.795,6.817-19.168,9.812-29.726,12.408
		c-15.152,3.728-30.611,4.98-46.129,5.785c-20.428,1.058-40.885,1.74-61.274,3.297c-20.354,1.555-39.466,7.222-55.714,20.33
		c-5.458,4.403-9.899,9.642-12.439,16.299c-0.174,0.456-0.258,0.945,0.125,1.843c2.595-2.095,5.149-4.241,7.792-6.274
		c4.812-3.703,9.644-7.461,15.99-8.076c9.088-0.881,15.17,4.222,16.011,13.297c0.037,0.411,0.097,0.818,0.249,2.084
		c1.659-1.755,2.925-3.076,4.169-4.418c3.807-4.112,7.001-9.233,13.001-10.272c4.016-0.695,8.29-0.891,12.309-0.32
		c5.066,0.72,7.704,4.538,8.657,9.438c1.298,6.666-0.438,13.105-1.536,19.593c-1.432,8.468-3.04,16.916-4.163,25.423
		c-0.78,5.92-0.195,11.748,4.382,16.219c-0.206,0.401-0.25,0.653-0.394,0.747c-5.616,3.593-11.36,1.746-16.802-0.138
		c-4.597-1.591-6.705-5.865-6.386-10.457c0.58-8.349,1.844-16.648,2.864-24.963c0.697-5.689,1.675-11.353,2.122-17.06
		c0.281-3.593-1.35-4.685-4.772-3.441c-8.54,3.104-13.723,9.672-15.451,18.148c-2.35,11.524-3.665,23.269-5.13,34.956
		c-0.615,4.912-0.93,5.615-5.799,6.104c-3.176,0.317-6.333,0.845-9.514,1.104c-4.244,0.347-5.723-0.82-5.237-4.984
		c0.888-7.591,2.152-15.144,3.436-22.683c1.229-7.219,2.766-14.384,3.992-21.602c0.482-2.837,0.719-5.907-2.065-7.877
		c-1.919-1.358-6.281-0.043-9.073,2.378c-6.57,5.695-10.979,12.88-12.877,21.216c-2.042,8.973-3.426,18.128-4.54,27.272
		c-0.871,7.154-1.215,7.84-8.394,7.772c-16.393-0.15-28.114-8.56-37.237-21.287c-8.625-12.032-13.146-25.819-16.511-40.068
		c-2.657-11.247-5.147-22.547-8.298-33.658c-4.667-16.464-14.592-29.111-29.252-38.011c-1.615-0.982-3.105-2.17-5.627-3.951
		c2.302-1.083,3.839-2.411,5.41-2.451c13.852-0.354,27.713-0.73,41.564-0.56c6.552,0.08,11.033,4.523,14.813,9.497
		c5.983,7.873,11.631,16.027,17.999,23.576c6.997,8.296,15.654,14.663,25.655,19.099c1.786,0.792,3,0.692,4.438-0.792
		c17.581-18.14,39.171-28.651,63.954-32.302c13.442-1.98,27.065-2.783,40.627-3.882c17.394-1.411,34.845-2.216,52.197-4.005
		c9.714-1.001,19.04-4.179,27.625-9.096c1.097-0.628,2.208-1.347,3.056-2.262c2.009-2.161,1.33-4.192-1.563-4.884
		c-0.813-0.195-1.689-0.177-2.537-0.177c-38.165,0.042-76.331,0.092-114.499,0.139c-0.745,0.001-1.522,0.103-2.231-0.068
		c-1.351-0.325-2.66-0.813-3.989-1.235c0.748-1.211,1.267-2.672,2.277-3.601c13.997-12.841,30.346-21.323,48.71-26.002
		c2.26-0.577,4.538-1.087,6.802-1.652c0.506-0.126,0.987-0.354,1.743-0.633c-1.723-1.213-3.443-2.183-4.873-3.475
		c-6.327-5.715-6.919-13.843-1.661-21.259c9.62-13.565,34.015-13.729,43.81-0.295C277.669,79.599,275.272,88.985,264.219,95.385z"/>
	<path d="M236.616,421.944c-2.99-0.262-5.976-0.609-8.971-0.769c-29.087-1.566-57.365-6.802-83.952-19.165
		c-20.831-9.685-37.703-23.875-48.15-44.752c-6.8-13.59-8.761-27.694-2.872-42.177c4.55-11.181,13.148-18.344,23.937-23.116
		c12.762-5.644,26.255-8.461,40.068-9.582c11.881-0.963,23.814-1.286,35.717-2.011c3.047-0.187,4.316,0.773,3.905,3.94
		c-0.588,4.537-0.968,9.099-1.432,13.652c-0.222,2.185-1.26,2.957-3.591,2.9c-15.033-0.359-30.078-0.144-44.67,3.965
		c-6.077,1.71-12.233,3.885-17.643,7.061c-11.483,6.742-14.972,17.769-13.714,30.415c0.763,7.678,3.361,14.899,7.694,21.381
		c0.852,1.274,1.969,2.372,3.267,3.913c0.347-5.638,0.251-10.741,1.041-15.703c2.263-14.248,9.292-25.701,21.412-33.68
		c8.98-5.912,23.849-5.666,31.744,0.215c5.522,4.112,8.016,9.724,6.771,16.46c-0.414,2.241-2.119,5.111-4.03,6.021
		c-3.736,1.781-7.992,2.597-12.115,3.382c-2.017,0.384-2.96-0.867-2.422-3.221c1.505-6.582,0.243-10.304-3.813-12.159
		c-3.243-1.485-8.26,0.699-11.473,5.498c-6.088,9.09-7.452,19.128-4.592,29.558c1.977,7.21,11.542,11.488,19.001,8.548
		c3.691-1.455,6.924-4.043,10.454-5.954c1.108-0.601,2.859-1.304,3.702-0.842c1.897,1.043,2.249,3.104,0.998,4.978
		c-6.646,9.945-13.761,19.236-27.581,18.532c-0.277-0.015-0.566,0.173-1.682,0.541c1.814,0.862,3.021,1.505,4.279,2.022
		c13.026,5.381,26.71,8.387,40.515,10.726c27.484,4.66,55.244,6.002,83.066,5.692c25.024-0.275,49.957-1.795,74.275-8.515
		c1.082-0.298,3.347,0.211,3.531,0.812c0.47,1.534,0.728,3.799-0.086,4.948c-4.603,6.494-9.313,12.942-14.434,19.032
		c-5.446,6.475-12.68,10.252-21.021,11.717c-2.921,0.514-5.909,0.912-8.868,0.915c-49.68,0.054-99.363,0.03-149.045,0.053
		c-3.313,0.001-6.627-0.085-8.191-3.587c-1.587-3.56-0.94-7.259,1.189-10.315c2.108-3.023,5.529-3.319,8.963-2.589
		c14.634,3.107,29.434,4.623,44.385,4.265c7.128-0.171,14.247-0.823,21.363-1.324c1.067-0.074,2.107-0.527,3.161-0.803
		C236.674,422.529,236.645,422.237,236.616,421.944z"/>
	<path d="M205.981,274.813c4.171,0,8.224-0.359,12.181,0.101c3.928,0.456,6.656,3.941,6.163,8.044
		c-0.81,6.73-2.19,13.396-3.391,20.076c-1.56,8.666-3.187,17.317-4.765,25.982c-0.07,0.384,0.056,0.804,0.152,1.925
		c2.172-1.902,3.973-3.466,5.762-5.044c5.363-4.732,10.81-9.071,18.232-10.499c9.008-1.731,17.194,3.937,17.143,14.735
		c-0.04,8.936-1.979,17.876-3.284,26.787c-1.146,7.862-3.474,15.638-1.591,23.675c0.503,2.144,1.289,4.269,2.264,6.246
		c0.833,1.681,0.479,2.759-1.135,3.211c-5.834,1.63-11.806,2.479-17.215-0.986c-4.951-3.17-6.066-8.416-5.317-13.815
		c1.268-9.139,3.019-18.213,4.507-27.324c0.598-3.663,1.286-7.334,1.495-11.029c0.251-4.449-1.261-5.497-5.65-4.358
		c-6.302,1.633-10.777,5.667-14.452,10.873c-4.505,6.382-5.215,13.804-6.059,21.183c-0.775,6.762-1.346,13.549-1.991,20.327
		c-0.246,2.584-1.461,4.081-4.222,4.125c-4.368,0.069-8.735,0.312-13.1,0.297c-3.963-0.013-4.93-1.202-4.276-5.157
		c1.737-10.475,3.474-20.95,5.351-31.399c3.846-21.411,7.834-42.796,11.638-64.216C205.217,284.094,205.463,279.523,205.981,274.813
		z"/>
	<path d="M259.787,206.154c3.204-2.999,6.021-5.884,9.095-8.462c4.973-4.167,10.9-5.198,17.117-4.161
		c3.998,0.667,6.598,3.376,7.603,7.31c2.603,10.193-5.876,19.8-16.334,18.6c-2.375-0.272-3.624-1.218-2.252-3.763
		c0.3-0.554,0.48-1.182,0.649-1.795c0.753-2.747,0.065-3.623-2.691-3.289c-5.645,0.681-9.463,3.848-12.144,8.755
		c-3.654,6.692-4.786,14.029-5.665,21.415c-0.832,6.971-1.345,13.979-2.067,20.965c-0.401,3.909-1.896,5.215-5.729,5.229
		c-4.051,0.015-8.104,0.02-12.155,0.02c-3.999,0-4.336-0.279-3.675-4.145c1.505-8.791,3.165-17.552,4.695-26.337
		c2.077-11.926,5.114-23.734,4.834-35.962c-0.054-2.377-0.589-4.8-1.278-7.089c-0.492-1.638-0.278-2.397,1.4-2.711
		c5.318-0.993,10.648-1.046,15.676,1.017c1.317,0.54,2.594,2.625,2.793,4.143C260.082,199.13,259.787,202.459,259.787,206.154z"/>
	<path d="M223.185,263.875c-3.189,3.199-11.711,4.646-16.234,2.691c-5.429-2.347-6.911-7.35-6.682-12.377
		c0.361-7.929,1.59-15.829,2.678-23.71c1.058-7.666,2.468-15.283,3.579-22.943c0.317-2.188,1.015-3.636,3.442-3.583
		c3.479,0.075,7.027-0.21,10.422,0.378c4.193,0.73,5.257,2.648,4.551,6.844c-1.51,8.997-3.228,17.96-4.63,26.975
		c-0.972,6.25-2.783,12.559-0.281,18.861C220.962,259.358,222.138,261.61,223.185,263.875z"/>
	<path d="M364.765,301.527c0.106,0,0.213,0,0.317,0c6.036,0.074,10.114,2.102,11.158,5.546c1.242,4.1-1.472,10.898-5.77,13.518
		c-2.028,1.237-4.418,2.144-6.756,2.557c-4.882,0.864-8.637-1.746-10.162-6.572c-1.718-5.43,0.419-11.471,5.092-13.695
		c1.857-0.887,3.994-1.188,6.003-1.758C364.688,301.257,364.727,301.394,364.765,301.527z"/>
	<path d="M207.606,186.908c-0.024-5.176,4.664-9.773,10.232-10.501c5.663-0.741,11.564,2.149,12.992,6.421
		c1.523,4.556,0.049,8.368-3.218,11.553c-3.478,3.389-9.721,4.528-13.941,2.473C209.404,194.779,207.838,190.958,207.606,186.908z"
		/>
</g>
</svg>
